<svg id="Isolationstilstand" xmlns="http://www.w3.org/2000/svg" viewBox="0 0 798.96 703.52"><path d="M-98,32.64c-12-5.85-25.24-7.79-38.07-8.63-21.4-1.39-43-.27-64.46-.19l-401.39,1.39c-24.66.09-49.32.27-74,.35-1.94,0-4.27.93-4.85-2.57-2.48-14.91-5.64-29.7-8.67-44.51-2.06-10.12-4.1-20.19-7.08-30.1-5.65-18.77-17.37-32.26-34.66-41.2-9.2-4.76-18.67-8.91-28.76-11.23-34.54-7.94-69.14-15.63-103.72-23.42a13.1,13.1,0,0,0-5.94,0,15.38,15.38,0,0,0-12.24,15c-.09,7.62,4.51,13.63,12.34,15.43,28,6.43,56.08,12.89,84.2,19,14.32,3.1,28.62,5.75,41.58,13.25,10.29,6,17.22,13.68,20.56,25.55,4.48,16,5.87,32.34,8.82,48.49,14.85,81.38,29.49,162.8,44.75,244.1,8.44,44.93,14.54,90.33,26,134.68,3.88,15,7.85,30,15.75,43.51,9.25,15.79,22.72,25.54,41.49,26.35,12.31.52,24.64.51,37,.53q126,.27,251.94.44c31.83.06,63.66.05,95.48.19,7,0,12.35-2.29,15.64-8.62,5.19-10-2.14-22.67-16.23-22.66-123.8,0-247.6-.36-371.4-.53-13.23,0-22.76-5.95-29.46-16.94-3.22-5.27-5.35-11.06-7.5-16.84-6.49-17.46-8-36-11.92-54-1-4.52.24-5.16,4.41-5.15q96.72.16,193.45.08v-.52q84.74,0,169.46,0c13.66,0,27.29.05,40.9-1.89,22.31-3.18,37-15.33,44.78-36.24q37.8-101.5,75.49-203c3.8-10.27,8.78-20.15,10.77-31.06C-81,47.81-85.38,38.82-98,32.64ZM-534.8,303.06c-25.66,0-51.31.12-77,.22-3.83,0-7.71-.31-11.48.17-4.4.56-5.57-1.36-6.28-5.31q-15.54-86.23-31.34-172.43C-665,103-669.23,80.22-673.58,56.57c25.49,0,50.13,0,74.77,0,12.66,0,25.33,0,38-.25,3.17-.06,4.2.88,4.53,4.1,3.06,30.15,6.31,60.29,9.51,90.42q6.85,64.59,13.7,129.16c.66,6.29,1.18,12.61,2.07,18.87C-530.55,302.14-531.43,303.07-534.8,303.06Zm123.09-124c0,39.31-.06,78.61.09,117.91,0,3.94-.63,5.36-5,5.35-29.14,0-58.28.24-87.42.56-3.38,0-4.85-.51-5.24-4.39-4.38-43-9-86.08-13.54-129.12-3.79-35.91-7.49-71.84-11.44-107.74-.47-4.23,0-5.64,4.78-5.63q56.44.19,112.91-.27c3.9,0,5,1,5,4.93C-411.77,100.15-411.71,139.62-411.71,179.08ZM-299.44,298c-.31,3-1.32,3.81-4.27,3.81q-40.73,0-81.44.41c-3.82,0-4.67-1.05-4.66-4.74.14-39.47.09-78.94.09-118.42,0-39.31.08-78.61-.11-117.92,0-4.43,1.11-5.5,5.5-5.49q52.72.06,105.43-.43c3.85,0,5.08.65,4.63,4.9Q-283.82,149-293,237.87C-295.15,257.9-297.42,277.92-299.44,298Zm180.5-227.86c-5.42,11-7.53,23-12.27,34.21-4.93,11.62-9,23.63-13.38,35.47q-6.53,17.52-13,35.07-17.49,47-35,94c-2.26,6-4.53,12.09-7,18.07-3.52,8.7-9.9,13.3-19.44,13.9s-19.31.37-29,.77c-9,0-18-.08-27,0-2.74,0-3.74-.51-3.41-3.63q9.33-86.62,18.43-173.29c2.29-21.69,4.66-43.36,6.72-65.07.36-3.79,1.72-4.51,5.22-4.51,34,0,67.94-.3,101.92-.12a80.51,80.51,0,0,1,20.69,2.37C-118.31,59.25-115.77,63.68-118.94,70.09Z" transform="translate(881.84 127.8)"/><path d="M-534.84,479.68a47.8,47.8,0,0,0-47.69,47.64c-.16,26.45,21.46,48.45,47.58,48.4s47.29-21.68,47.33-48.06S-508.64,479.75-534.84,479.68Zm-.14,69.26a21.24,21.24,0,0,1-21.13-21.44,21.23,21.23,0,0,1,20.82-21.25,21.34,21.34,0,0,1,21.41,21.2A21.32,21.32,0,0,1-535,548.94Z" transform="translate(881.84 127.8)"/><path d="M-281.56,479.68A47.33,47.33,0,0,0-329,527.32c-.09,26.77,21.17,48.47,47.41,48.4,26.07-.06,47.2-21.58,47.25-48.09S-255.27,479.76-281.56,479.68Zm-.37,69.25a21.15,21.15,0,0,1-20.85-21.66,21.25,21.25,0,0,1,21-21,21.21,21.21,0,0,1,21.09,21.46A21.13,21.13,0,0,1-281.93,548.93Z" transform="translate(881.84 127.8)"/></svg>