<?xml version="1.0" encoding="utf-8"?>
<!-- Generator: Adobe Illustrator 26.0.1, SVG Export Plug-In . SVG Version: 6.00 Build 0)  -->
<svg version="1.1" id="Layer_1" xmlns="http://www.w3.org/2000/svg" xmlns:xlink="http://www.w3.org/1999/xlink" x="0px" y="0px"
	 viewBox="0 0 1920 1080" style="enable-background:new 0 0 1920 1080;" xml:space="preserve">
<style type="text/css">
	.st0{fill:#505050;}
	.st1{fill:#595959;}
</style>
<g>
	<path class="st0" d="M921.8,414.63c0.2,1.2,0.35,2.39-0.54,3.42c0-1.09,0-2.19,0-3.28C921.39,414.52,921.57,414.47,921.8,414.63z"
		/>
	<path class="st1" d="M921.26,581.41c0.89,1,0.79,2.17,0.59,3.35l-0.29-0.11l-0.31,0.04C921.26,583.59,921.26,582.5,921.26,581.41z"
		/>
	<path d="M1570.61,443.28c0-3.4-0.21-6.77-1.03-10.07c-4.31-17.45-19.16-29-37.64-29.11c-15.2-0.09-30.4-0.02-45.59-0.02
		c-6.03,0-6.02,0-6.98-6.07c-0.08-0.53-0.29-1.05-0.44-1.57c-3.95-14.02-14.64-22.22-29.77-22.28c-31.05-0.13-62.1,0.04-93.16-0.07
		c-17.63-0.06-30.22,12.78-30.75,28c-0.08,2.26-1.39,1.99-2.82,1.99c-10.82-0.01-21.65-0.08-32.47,0.02
		c-7.75,0.07-15.52-0.44-23.26,0.5c-15.5,1.88-29.93,16.54-31.45,32.03c-0.56,1.08,0.23,2.37-0.54,3.42c0,54.45,0,108.9,0,163.36
		c0.79,1.01-0.07,2.32,0.59,3.35c0.48,4.64,2.06,8.93,4.53,12.84c8.22,13.01,20.12,18.98,35.47,18.95
		c59.26-0.1,118.52-0.04,177.78-0.04c26.02,0,52.05-0.29,78.07,0.08c25.15,0.36,39.71-20.78,39.58-39.51
		C1570.35,547.15,1570.59,495.21,1570.61,443.28z M1554.01,598.16c-0.16,7.56-2.19,14.39-8.66,19.22c-4.43,3.32-9.46,4.25-14.8,4.25
		c-42.64,0-85.28,0-127.93,0c-42.75,0-85.5,0.01-128.25-0.01c-11.55,0-19.52-5.86-22.15-16.11c-0.55-2.15-0.53-4.33-0.53-6.51
		c-0.01-51.83-0.02-103.65,0-155.48c0.01-13.9,8.58-22.45,22.49-22.47c19.35-0.02,38.71,0,58.06-0.01c7.05,0,10.33-3.31,10.41-10.41
		c0.04-3.06-0.05-6.13,0.24-9.17c0.56-5.97,5.02-10.17,11-10.61c1.09-0.08,2.19-0.08,3.28-0.08c30.4,0,60.79-0.01,91.19,0
		c10.35,0,14.67,4.36,14.67,14.77c0,1.97-0.02,3.94,0,5.9c0.06,6.02,3.55,9.58,9.55,9.58c19.68,0.03,39.36,0.02,59.04,0.01
		c3.76,0,7.44,0.45,10.8,2.22c8.35,4.37,11.67,11.58,11.66,20.73c-0.03,42.86-0.02,85.72-0.02,128.58
		C1554.05,581.1,1554.19,589.63,1554.01,598.16z"/>
	<path d="M1516.16,473.64c-8.59-0.07-15.62-7.2-15.48-15.7c0.14-8.61,7.19-15.48,15.79-15.4c8.63,0.08,15.51,7.09,15.44,15.72
		C1531.84,466.87,1524.84,473.71,1516.16,473.64z"/>
	<path d="M1403.04,442.75c-42.87,0.22-78.68,33.57-78.86,78.26c-0.17,43.08,33.8,78.65,78.24,78.78
		c42.99,0.12,78.38-33.79,78.79-78.3C1481.59,478.51,1446.56,443.34,1403.04,442.75z M1402.37,582.91
		c-34.03-0.04-61.33-27.88-60.95-61.48c0.39-34.21,27.5-61.18,61.38-61.06c34.11,0.13,61.27,27.55,61.1,61.67
		C1464.18,555.79,1436.32,582.95,1402.37,582.91z"/>
</g>
</svg>
