<svg id="Layer_1" data-name="Layer 1" xmlns="http://www.w3.org/2000/svg" viewBox="0 0 408.74 408.65"><defs><style>.cls-1{fill:#fe4352;}.cls-2{fill:#fe2d66;}.cls-3{fill:#fe4550;}.cls-4{fill:#fe474f;}.cls-5{fill:#fe5382;}.cls-6{fill:#fea1bb;}.cls-7{fill:#fe5542;}.cls-8{fill:#fe3361;}.cls-9{fill:#fe583f;}.cls-10{fill:#fe3163;}.cls-11{fill:#fe4c4a;}.cls-12{fill:#fe4055;}.cls-13{fill:#fe5245;}.cls-14{fill:#fe3c59;}.cls-15{fill:#fe4f47;}.cls-16{fill:#fe5a3d;}.cls-17{fill:#fe494d;}.cls-18{fill:#fe4253;}.cls-19{fill:#fe375d;}.cls-20{fill:#fe5d3b;}.cls-21{fill:#fe395b;}.cls-22{fill:#fe464f;}.cls-23{fill:#fe4451;}.cls-24{fill:#fe5443;}.cls-25{fill:#fe375e;}.cls-26{fill:#fe3a5b;}.cls-27{fill:#fe3d58;}</style></defs><path class="cls-1" d="M408.7,220.3c-1.71,4.75-1.31,9.84-2.34,14.7-.55,2.58-.56,5.27-1.61,7.74-2.75-1.21-5.67-1.21-8.6-1.21H265.33c-2.5,0-5.07.32-7.45-.84-2-1.39-1.31-2.92-.17-4.42,5-6.53,10.08-13,15.13-19.47a5.56,5.56,0,0,1,4-2.35,37,37,0,0,1,5.57-.23h119c2.47,0,5.09-.52,7.27,1.27Z" transform="translate(0 -0.01)"/><path class="cls-2" d="M290.58,389.35c-21.7,10.52-44.67,16.34-68.62,18.51-.64.06-1.34,0-1.61.8H218a1,1,0,0,0-1.4-.2,1,1,0,0,0-.2.2h-4.78a4.35,4.35,0,0,0-4,0h-6.39a6.13,6.13,0,0,0-4.79,0h-4a1,1,0,0,0-1.4-.2,1,1,0,0,0-.2.2H187.6c-4.43-1.86-9.22-1.56-13.84-2.3-19.33-3.11-38-8.38-55.59-17-.67-2,.93-2.17,2.14-2.48a19.47,19.47,0,0,1,4.76-.26H283.68a19,19,0,0,1,4.76.27C289.65,387.18,291.25,387.34,290.58,389.35Z" transform="translate(0 -0.01)"/><path class="cls-3" d="M408.7,215.51H275.37a1.41,1.41,0,0,1,0-1.14A108.51,108.51,0,0,1,288,197.91a3.91,3.91,0,0,1,2.52-1,33.35,33.35,0,0,1,5.19-.23H401.85c2.35,0,4.84-.44,6.89,1.27v8.78a8.26,8.26,0,0,0,0,5.59Z" transform="translate(0 -0.01)"/><path class="cls-4" d="M408.7,198H289c-.52-2,1-3.2,1.94-4.53,1.94-2.63,2.79-5.35,1.52-8.55-.58-1.46-1.26-3.15,1.15-3.82a23.46,23.46,0,0,1,5.55-.36H400.29c2.35,0,4.82-.39,6.89,1.26,1.39,1.92-.26,4.57,1.52,6.41v3.19c-.58.53-.36,1.24-.41,1.89.15,1-.35,2,.41,2.9Z" transform="translate(0 -0.01)"/><path class="cls-5" d="M196.4,408.66a3.61,3.61,0,0,1,4.79,0Z" transform="translate(0 -0.01)"/><path class="cls-5" d="M207.58,408.66a2.68,2.68,0,0,1,3.78-.22l.22.22Z" transform="translate(0 -0.01)"/><path class="cls-6" d="M190.81,408.66c.54-1,1.07-.88,1.6,0Z" transform="translate(0 -0.01)"/><path class="cls-6" d="M216.35,408.66c.54-.88,1.07-1,1.6,0Z" transform="translate(0 -0.01)"/><path class="cls-7" d="M36.44,88.51A153.81,153.81,0,0,1,58.9,61.43a8.25,8.25,0,0,1,3.51-.56c92.65.31,185.31.05,278,.17,3.16,0,6.37-.79,9.49.39,5.7,5.06,10.27,11.12,14.92,17.09.63,2-1,2.11-2.22,2.4a19.89,19.89,0,0,1-4.75.24H251.18a23.81,23.81,0,0,1-5.53-.33,2.64,2.64,0,0,1-2.1-3,19.72,19.72,0,0,1,.22-2c.46-4.47-.85-7.3-4-8.67s-6.51-.3-9.32,3.35c-4.22,5.48-8.68,10.77-12.74,16.37-1.27,1.75-2.64,3.41-5.19,3.08C156.36,89.82,100.2,90,44,89.9,41.46,89.87,38.67,90.6,36.44,88.51Z" transform="translate(0 -0.01)"/><path class="cls-8" d="M355.18,341.43a154.07,154.07,0,0,1-22.77,21.89,17.72,17.72,0,0,1-2,1.21c-3.18-.27-6.36-.09-9.55-.09H87.76a72.39,72.39,0,0,0-9.54.34,175.31,175.31,0,0,1-25.54-24c-.09-2,1.39-2.35,2.84-2.68a15.9,15.9,0,0,1,3.58-.23H159.63a19.46,19.46,0,0,1,3.58.21c5.36,4.4,11,4.26,16.82,1,4,.39,8,.41,12,.41H348C350.48,339.59,353.47,338.43,355.18,341.43Z" transform="translate(0 -0.01)"/><path class="cls-9" d="M349.87,61.43a22.18,22.18,0,0,1-7.06.91H66a21.81,21.81,0,0,1-7-.91A145.85,145.85,0,0,1,83.77,39.91a9.57,9.57,0,0,1,4.31-.51q116.14.18,232.3,0a14.11,14.11,0,0,1,4.71.49A145.7,145.7,0,0,1,349.87,61.43Z" transform="translate(0 -0.01)"/><path class="cls-10" d="M78.26,364.81c.95-2.09,2.84-1.63,4.51-1.63H325.39c1.77,0,3.81-.67,5.06,1.38a182.34,182.34,0,0,1-35.56,22.87c-1.42.69-2.88,1.28-4.31,1.91-.42-1.94-2-1.42-3.22-1.42h-166c-1.22,0-2.8-.53-3.22,1.42A182.21,182.21,0,0,1,78.26,364.81Z" transform="translate(0 -0.01)"/><path class="cls-11" d="M395.78,133.31A140.54,140.54,0,0,1,404,162c-1.49,1.5-3.43,1.3-5.26,1.3H225.55a12.43,12.43,0,0,1-4.33-.5c-1.78-.81-1.52-2.31-1.14-3.72q3.06-11.28,6.43-22.46a4.65,4.65,0,0,1,2.58-3.33c2.34-.73,4.74-.5,7.12-.5H387.13C390,132.85,393,132,395.78,133.31Z" transform="translate(0 -0.01)"/><path class="cls-12" d="M11.18,269.88A117.76,117.76,0,0,1,4,242.65c1.49-1.49,3.43-1.28,5.25-1.28H184.06a12.44,12.44,0,0,1,4.33.51c1.88.91,1.64,2.57,1.28,4.13-1.73,7.49-4,14.83-6.2,22.21-.4,1.37-.94,2.88-2.95,2.56a41.69,41.69,0,0,0-8.35-.49H15.52A14.11,14.11,0,0,1,11.18,269.88Z" transform="translate(0 -0.01)"/><path class="cls-13" d="M36.44,88.51q25.71,0,51.42.1h120.8c1.85,0,3.73-.19,5.42.84.43,1.48-.42,2.55-1.22,3.58-5.26,6.78-10.48,13.58-15.81,20.29a5.27,5.27,0,0,1-4.73,2.39c-2.93-.26-5.85-.26-8.77-.26h-155c-2.45,0-5.11.64-7.21-1.36A145.84,145.84,0,0,1,36.44,88.51Z" transform="translate(0 -0.01)"/><path class="cls-14" d="M11.18,269.88c1.12-1.4,2.7-.87,4.09-.87H177.11c1.53,0,3.66-.92,4.19,1.73,1.13,1.3.69,2.73.3,4.12-1.74,6.07-3.41,12.16-5.24,18.2-.48,1.59-.77,3.48-3.09,3.53q-73.92.09-147.82.06a18.63,18.63,0,0,1-3.16-.34A123,123,0,0,1,11.18,269.88Z" transform="translate(0 -0.01)"/><path class="cls-15" d="M21.31,114.06q50.63,0,101.26.09h64.58a21.88,21.88,0,0,1,7.06.89c.67,1.35-.21,2.26-.93,3.2-5.09,6.62-10.27,13.17-15.35,19.8a5.25,5.25,0,0,1-4.75,2.39c-2.93-.26-5.85-.27-8.77-.27H18.21c-2.45,0-5.1.63-7.22-1.33A148.18,148.18,0,0,1,21.31,114.06Z" transform="translate(0 -0.01)"/><path class="cls-11" d="M11,138.83H167.93a22.68,22.68,0,0,1,7,.86c-.09,2.59-1.9,4.36-3.28,6.18-4.42,5.8-8.85,11.59-13.42,17.27-1.3,1.62-2.67,3-5,2.6-47.29-.13-94.57,0-141.84-.08-2.46,0-5.1.59-7.26-1.27A144.87,144.87,0,0,1,11,138.83Z" transform="translate(0 -0.01)"/><path class="cls-16" d="M325,39.87a22,22,0,0,1-6.65.88h-228a22.06,22.06,0,0,1-6.66-.88,156.34,156.34,0,0,1,30.35-18.55c57.92-.57,115.84-.09,173.76-.28,2.28,0,4.46.67,6.72.59,8.44,2.92,15.78,7.82,22.91,13C320,36.43,322.86,37.63,325,39.87Z" transform="translate(0 -0.01)"/><path class="cls-15" d="M395.78,133.31a18.41,18.41,0,0,1-6.26.81H228.46c-1.17-1.2-.51-2.51-.17-3.74,1.78-6.54,3.69-13,5.58-19.54.46-1.57.74-3.59,3.25-3.23a35.58,35.58,0,0,0,7.14.48H375.7c2.8,0,5.56-.37,8.34-.49A149.08,149.08,0,0,1,395.78,133.31Z" transform="translate(0 -0.01)"/><path class="cls-17" d="M220.48,162H404a91.57,91.57,0,0,1,3.19,20l-115.2.09c-23.52-2.64-47.12-.57-70.68-1.23a21.42,21.42,0,0,1-4-.29c-1.44-.32-2.73-1.18-2.37-2.68C216.25,172.43,216.46,166.55,220.48,162Z" transform="translate(0 -0.01)"/><path class="cls-17" d="M4.18,164.43H149.27c2,0,4-.22,5.83.87.12,2.06-1.31,3.41-2.36,4.87-4.23,5.9-8.88,11.49-13.29,17.26-1.12,1.45-2.35,2.55-4.36,1.63-3.47-.26-6.93-.19-10.38-.19H7.85c-2.34,0-4.84.52-6.88-1.26A125.83,125.83,0,0,1,4.18,164.43Z" transform="translate(0 -0.01)"/><path class="cls-18" d="M189.34,242.68H4a65,65,0,0,1-2.39-15.81c-1-2.89.12-4.29,3-4.53.93-.08,1.86-.11,2.79-.11H109.55a13.64,13.64,0,0,1,5.12.59c4.25,4.62,9.68,5.2,15.6,5.13,18.31-.2,36.62-.07,54.93-.07,1.46,0,2.92,0,4.38.06,4,.31,5.09,1.51,3.91,5.38C192.5,236.54,193,240.56,189.34,242.68Z" transform="translate(0 -0.01)"/><path class="cls-19" d="M164.49,339.22H57.63c-1.77,0-3.84-.63-4.91,1.61a150.72,150.72,0,0,1-19.26-25.21c-.78-2,.58-2.6,2.11-3a20,20,0,0,1,4.76-.29H161.87c2.44,0,5.14-.62,7,1.72,1,2.87-.54,5.47-1.06,8.13C166.73,327.91,164.63,333.37,164.49,339.22Z" transform="translate(0 -0.01)"/><path class="cls-20" d="M294.55,21.63c-1.21,1.22-2.76.71-4.17.71H118.48c-1.5,0-3.25.63-4.41-1a187.1,187.1,0,0,1,54-18A201.48,201.48,0,0,1,272.89,12,176.35,176.35,0,0,1,294.55,21.63Z" transform="translate(0 -0.01)"/><path class="cls-13" d="M384,107.61c-.78,1.89-2.42,1.76-4,1.76H239.92c-1.51,0-3.35.48-3.71-1.88a3.12,3.12,0,0,1-.48-3c1.08-4,2.18-8.08,3.47-12.07A4.36,4.36,0,0,1,242,89.35a27.49,27.49,0,0,1,7.13-.43H363.45a49,49,0,0,0,8.72-.64A111.65,111.65,0,0,1,384,107.61Z" transform="translate(0 -0.01)"/><path class="cls-21" d="M168.54,315.43c-.52-2.66-2.65-1.74-4.18-1.74q-30.12-.07-60.23,0H37.92c-1.65,0-4-1-4.46,1.92A101.5,101.5,0,0,1,22.3,296.29c1.07-1.49,2.66-1,4-1h144c1.28,0,2.7-.44,3.73.82a2.43,2.43,0,0,1,.61,2.21A154.06,154.06,0,0,1,170.21,314,1.87,1.87,0,0,1,168.54,315.43Z" transform="translate(0 -0.01)"/><path class="cls-22" d="M1,187.58q65.57,0,131.13,0c1.5,0,3.59-1.08,4.44,1.36.15,1.59-.79,2.74-1.59,3.93-3,4.46-6.45,8.63-9.81,12.83-1.12,1.39-2.3,2.61-4.33,1.76a54.67,54.67,0,0,0-6-.3H8.81c-.8,0-1.6,0-2.39,0-2.95-.17-4.45,1-4.35,4.14.06,1.81.26,3.77-1.36,5.2A125.32,125.32,0,0,1,1,187.58Z" transform="translate(0 -0.01)"/><path class="cls-23" d="M.74,216.56c0-1.32.1-2.65.12-4,.12-7.65-1-6.63,6.86-6.64H118c1.5,0,3.65-1,4.23,1.63a2.4,2.4,0,0,1-.87,2.46,24.5,24.5,0,0,0-6.46,13.43H5.87c-2.44,0-4.67-.09-4.22,3.37C.46,223.48.85,220,.74,216.56Z" transform="translate(0 -0.01)"/><path class="cls-24" d="M372.18,88.29c-.55,2.84-2.83,1.88-4.48,1.88q-61.89.08-123.77,0h-2.78a10.57,10.57,0,0,1,2.93-10.45q58.74,0,117.48,0c1.21,0,2.79.58,3.28-1.33A43.65,43.65,0,0,1,372.18,88.29Z" transform="translate(0 -0.01)"/><path class="cls-25" d="M355.18,341.43c-1.41-1.16-3.07-.62-4.61-.62H190.4c-4,0-8,.25-11.84-.9-.6-1.54.49-2.47,1.28-3.5,5.06-6.62,10.24-13.15,15.31-19.77,1.36-1.77,2.75-3.65,5.37-3.66,4,.25,8,.19,12,.19H367.15a27.07,27.07,0,0,1,5.17.16c1.3.24,3.14,0,3.05,2.25-5.37,8.22-10.93,16.3-17.62,23.53C356.94,340,356.49,341.18,355.18,341.43Z" transform="translate(0 -0.01)"/><path class="cls-26" d="M375.34,315.6c-1.39-1.91-3.43-1.08-5.17-1.08q-82.49-.07-165,0a18.69,18.69,0,0,1-6.26-.81c-.63-2,1-3.16,2-4.41,4.9-6.25,9.7-12.56,14.64-18.78,1.23-1.55,2.36-3.3,4.8-2.9,53.9.12,107.79,0,161.67.09,2.64,0,5.71-.91,7.6,2.08A130.53,130.53,0,0,1,375.34,315.6Z" transform="translate(0 -0.01)"/><path class="cls-27" d="M389.63,289.77c-1.82-1.12-3.85-.82-5.83-.82H224.26c-1.84,0-3.75.32-5.44-.77-.64-1.74.76-2.7,1.57-3.79,4.48-6.08,9.28-11.9,13.82-17.94,1.33-1.76,2.9-3.11,5.33-2.88,3.06.19,6.12.15,9.18.15H392c2.46,0,5.11-.62,7.26,1.29A119,119,0,0,1,389.63,289.77Z" transform="translate(0 -0.01)"/><path class="cls-12" d="M399.18,265H243.71c-2.12,0-4.27.21-6.22-.93-.44-1.35.41-2.27,1.12-3.2,5.09-6.57,10.12-13.17,15.31-19.66.73-.92,1.43-1.93,2.84-1.84,1.81,1.08,3.83.89,5.81.89H400.46c1.78,0,4.33-.93,4.25,2.46A102.47,102.47,0,0,1,399.18,265Z" transform="translate(0 -0.01)"/></svg>