<?xml version="1.0" encoding="utf-8"?>
<!-- Generator: Adobe Illustrator 26.0.1, SVG Export Plug-In . SVG Version: 6.00 Build 0)  -->
<svg version="1.1" id="Layer_1" xmlns="http://www.w3.org/2000/svg" xmlns:xlink="http://www.w3.org/1999/xlink" x="0px" y="0px"
	 viewBox="0 0 1920 1080" style="enable-background:new 0 0 1920 1080;" xml:space="preserve">
<style type="text/css">
	.st0{fill:#515151;}
</style>
<g>
	<path class="st0" d="M972.76,320.7c-0.97-1.18-0.88-2.52-0.63-3.89c0.25-0.12,0.46-0.07,0.63,0.15
		C972.76,318.2,972.76,319.45,972.76,320.7z"/>
	<path d="M1151.3,362.87c-0.03-2.15-0.7-4.17-1.37-6.17c-5.63-16.64-19.9-26.34-38.89-26.34c-95.51-0.01-191.03-0.01-286.54-0.01
		c-0.87,0-1.76-0.09-2.62,0.02c-2.16,0.27-2.77-0.64-2.73-2.76c0.14-7.24,0.07-14.48,0.11-21.72c0.04-5.19-2.24-7.49-7.48-7.48
		c-11.74,0.02-23.47,0.13-35.21-0.03c-3.91-0.05-6.82,0.99-8.51,4.65c0,1.25,0,2.5,0,3.75c1.93,3.35,4.78,4.59,8.67,4.5
		c8.99-0.2,17.99,0,26.98-0.11c2.06-0.02,2.76,0.47,2.73,2.65c-0.15,8.87-0.2,17.74-0.07,26.6c0.04,2.47-0.85,2.87-3.02,2.81
		c-5.24-0.14-10.49-0.13-15.74,0c-4.04,0.1-6.61,2.54-6.76,6.06c-0.16,3.6,2.52,6.42,6.61,6.66c2.99,0.18,6-0.03,8.99,0.08
		c3.2,0.12,7.57-1.42,9.26,0.62c1.62,1.96,0.36,6.19,0.64,9.39c0.22,2.47-0.81,2.88-3,2.82c-5.24-0.15-10.49-0.12-15.74-0.01
		c-4.33,0.09-6.75,2.45-6.76,6.78c-0.07,16.74-0.07,33.48,0,50.21c0.02,4.42,2.59,6.78,7.12,6.87c2.87,0.06,5.75-0.01,8.62,0.02
		c3.1,0.04,7.39-1.09,9.01,0.49c2.09,2.05,0.39,6.35,0.73,9.66c0.22,2.16-0.59,2.72-2.68,2.66c-5.37-0.14-10.74-0.13-16.11-0.01
		c-4.01,0.09-6.79,2.94-6.69,6.55c0.1,3.51,2.78,6.05,6.66,6.17c3,0.09,6-0.06,8.99,0.05c3.2,0.11,7.58-1.42,9.26,0.67
		c1.61,1.99,0.36,6.2,0.57,9.42c0.14,2.07-0.46,2.79-2.64,2.72c-4.99-0.16-9.99-0.08-14.99-0.04c-5.48,0.04-7.87,2.34-7.88,7.69
		c-0.03,16.24-0.03,32.48,0,48.71c0.01,5.19,2.32,7.53,7.54,7.62c5.12,0.09,10.25,0.13,15.36-0.03c2.15-0.06,2.73,0.61,2.69,2.71
		c-0.12,6.87-0.05,13.74-0.04,20.61c0.01,5.74,2.22,8.65,6.52,8.6c4.19-0.04,6.24-2.79,6.28-8.37c0.06-11.11,0.18-22.23,0.15-33.34
		c-0.01-2.17,0.4-3.1,2.85-3.06c8.74,0.14,17.49,0.14,26.23,0c2.35-0.04,2.91,0.68,2.89,2.96c-0.12,11.12-0.06,22.23-0.05,33.35
		c0.01,6.52,1.96,8.49,8.45,8.49c45.59,0.01,91.17,0.01,136.76,0c6.24,0,8.36-2.09,8.37-8.29c0.02-11.12,0.08-22.23-0.05-33.35
		c-0.03-2.4,0.54-3.24,3.08-3.17c6.49,0.18,12.99,0.16,19.48,0.01c2.44-0.06,3.15,0.64,3.12,3.13c-0.14,11.24-0.08,22.48-0.06,33.72
		c0.01,5.78,2.12,7.93,7.85,7.94c15.99,0.02,31.97,0.02,47.96,0c6.01-0.01,8.05-2.06,8.06-8.1c0.02-11.24,0.07-22.48-0.05-33.72
		c-0.02-2.29,0.58-3.04,2.91-2.97c5.12,0.16,10.24,0.06,15.36,0.05c13.22-0.02,23.89-5.18,31.98-15.72
		c3.87-5.04,5.45-11.01,7.43-16.84c0-40.98,0-81.97,0-122.95C1151.04,365.57,1151.96,364.09,1151.3,362.87z M803.5,522.32
		c-2.35-0.21-4.76-0.22-7.11,0c-2.46,0.22-2.88-0.83-2.82-3.01c0.15-5.37,0.05-10.74,0.05-16.11c0-5.62,0.08-11.24-0.04-16.86
		c-0.04-1.96,0.57-2.49,2.53-2.55c10.2-0.33,10.2-0.39,10.2,9.79c0,8.62-0.08,17.23,0.07,25.85
		C806.42,521.73,805.85,522.54,803.5,522.32z M806.28,391.35c0.09,8.49-0.03,16.98,0.07,25.47c0.03,2.21-0.2,3.54-2.92,3.18
		c-3.17-0.41-7.43,1.36-9.27-0.75c-1.57-1.79-0.49-5.93-0.53-9.03c-0.04-3.25-0.01-6.49-0.01-9.74c0-5.37,0.07-10.74-0.04-16.1
		c-0.04-1.97,0.3-2.97,2.59-2.82c3.22,0.22,7.43-1.08,9.43,0.52C807.71,383.76,806.25,388.15,806.28,391.35z M992.13,527.01
		c-0.27,8.11-0.17,16.23-0.03,24.35c0.04,2.31-0.58,3.02-2.91,2.93c-4.61-0.18-9.24-0.18-13.86,0c-2.25,0.09-2.69-0.78-2.6-2.78
		c0.14-3.24,0.11-6.49,0.01-9.74c-0.12-3.96-2.57-6.51-6.18-6.6c-3.75-0.1-6.42,2.53-6.55,6.63c-0.1,3.37-0.1,6.75,0.01,10.11
		c0.06,1.7-0.3,2.49-2.22,2.37c-2.74-0.16-5.5-0.2-8.24,0.01c-2.17,0.16-2.44-0.81-2.38-2.6c0.11-3.24,0.1-6.5,0.01-9.74
		c-0.12-4.17-2.67-6.8-6.41-6.79c-3.72,0.01-6.24,2.67-6.33,6.82c-0.07,3.37-0.09,6.75,0.01,10.11c0.05,1.59-0.38,2.39-2.07,2.15
		c-0.12-0.02-0.25,0-0.37,0c-3.34-0.09-7.61,1.02-9.75-0.63c-2.02-1.55-0.42-6.06-0.6-9.27c-0.1-1.73,0.16-3.49-0.56-5.17
		c-1.32-3.05-3.67-4.34-6.88-3.89c-3.09,0.44-5.03,2.35-5.24,5.45c-0.24,3.61-0.23,7.24-0.07,10.86c0.09,2.18-0.65,2.82-2.75,2.68
		c-3.22-0.21-7.41,1.01-9.41-0.59c-2.1-1.69-0.45-6.06-0.67-9.25c-0.1-1.37,0.02-2.77-0.25-4.1c-0.69-3.42-3.37-5.39-6.75-5.13
		c-3.17,0.24-5.53,2.48-5.71,5.83c-0.2,3.61-0.17,7.24-0.07,10.86c0.04,1.75-0.45,2.42-2.3,2.38c-4.99-0.11-9.99-0.11-14.99,0
		c-1.76,0.04-2.03-0.66-2.02-2.19c0.06-9.12,0.13-18.24-0.03-27.35c-0.05-2.79,1.62-2.19,3.13-2.19c20.23-0.01,40.46-0.01,60.7-0.01
		c19.98,0,39.97,0.11,59.95-0.1C991.52,522.4,992.25,523.53,992.13,527.01z M1081.55,551.93c0.01,1.73-0.37,2.45-2.25,2.35
		c-2.74-0.15-5.5-0.19-8.23,0.01c-2.17,0.15-2.42-0.84-2.36-2.63c0.11-3.37,0.12-6.74,0-10.11c-0.14-3.86-2.78-6.42-6.38-6.4
		c-3.56,0.02-6.19,2.62-6.33,6.47c-0.12,3.37-0.12,6.74,0,10.11c0.07,1.86-0.33,2.7-2.42,2.55c-3.33-0.24-7.6,1-9.76-0.63
		c-2.05-1.55-0.55-6.06-0.6-9.26c-0.1-6.24,0.12-12.49-0.1-18.72c-0.1-2.74,0.82-3.28,3.34-3.19c5.36,0.2,10.73,0.06,16.1,0.06
		c5.49,0,10.98,0.08,16.47-0.04c1.94-0.04,2.55,0.47,2.52,2.47C1081.45,533.96,1081.47,542.95,1081.55,551.93z M1112.47,509.43
		c-9.37,0.07-18.74-0.14-28.11-0.15c-38.48-0.02-76.96-0.01-115.44-0.01c-35.86,0-71.72-0.02-107.58,0.01
		c-12.74,0.01-25.49,0-38.23,0.25c-3.05,0.06-3.62-0.9-3.61-3.73c0.09-38.22,0.08-76.45,0.05-114.67
		c-0.01-14.86-0.06-29.72-0.23-44.58c-0.03-2.52,0.53-3.41,3.26-3.41c96.71,0.07,193.41,0.02,290.12,0.1
		c15.75,0.01,26.43,11.01,26.44,26.81c0.03,37.48,0.03,74.96,0,112.45C1139.14,498.52,1128.47,509.32,1112.47,509.43z"/>
	<path d="M1056.65,356.04c-38.41-0.55-70.56,30.63-71.06,69.05c-0.54,40.97,32.74,71.37,69.69,71.6
		c38.5,0.23,70.53-30.64,71.06-69.11C1126.89,387.06,1094.11,356.06,1056.65,356.04z M1078.49,411.57c6.12-10.99,5.8-22.39,2.26-34
		c-0.32-1.05-0.82-2.04-1.58-3.87c8.51,3.82,15.11,8.89,20.64,15.43c0.73,0.86,0.73,1.78,0.56,2.8
		c-1.78,10.72-6.73,19.44-16.07,25.33c-1.14,0.72-3.12,2.36-3.81,0.94C1079.52,416.21,1076.96,414.32,1078.49,411.57z
		 M1059.4,368.91c1.39,0.07,2.61,0.13,3.57,1.48c6.29,8.86,8.99,18.52,6.65,29.31c-0.3,1.37-0.49,3.89-1.88,3.57
		c-2.11-0.48-5.36-0.45-6.07-2.89c-1.88-6.4-5.1-11.86-9.66-16.62c-4.53-4.73-9.99-8.15-16.38-11.26
		C1043.72,369.46,1051.46,368.48,1059.4,368.91z M1068.71,426.56c-0.1,7.09-5.71,12.38-13.07,12.32
		c-7.01-0.06-12.43-5.56-12.42-12.6c0.02-7.16,5.57-12.55,12.88-12.52C1063.32,413.79,1068.81,419.37,1068.71,426.56z
		 M1017.83,383.25c1.05-0.91,2.01-1.76,3.6-1.46c10.76,1.99,19.71,6.8,25.57,16.39c0.65,1.07,2.2,2.8,1.08,3.52
		c-1.85,1.2-4.31,3.41-6.35,2.27c-11.8-6.63-23.83-6.03-36.14-2.01c-0.56,0.18-1.23,0.02-1.9,0.02
		C1007.33,394.81,1011.84,388.48,1017.83,383.25z M1002.15,446.58c-3.11-8.2-4.22-16.24-3.63-24.54c0.09-1.21,0.63-2.11,1.61-2.8
		c8.98-6.27,18.73-9.11,29.62-6.48c1.2,0.29,3.6,0.64,3.26,1.71c-0.66,2.11-0.58,5.44-2.88,6.09
		C1016.49,424.45,1008.33,434.1,1002.15,446.58z M1033.63,440.46c-3.11,5.86-4.79,11.94-4.93,18.53
		c-0.14,6.54,1.17,12.82,3.61,19.77c-8.02-3.7-14.28-8.49-19.63-14.51c-0.98-1.1-1.4-2.2-1.14-3.72
		c1.87-10.69,6.84-19.37,16.19-25.23c1.07-0.67,2.84-2.16,3.55-1.04C1032.46,436.09,1034.75,438.37,1033.63,440.46z M1052.51,483.78
		c-1.4-0.07-2.61-0.18-3.55-1.51c-6.27-8.85-9.01-18.49-6.67-29.28c0.3-1.39,0.56-3.82,1.88-3.58c2.13,0.39,5.39,0.45,6.07,2.85
		c3.86,13.54,13.48,21.64,26.01,27.93C1068.17,483.2,1060.44,484.19,1052.51,483.78z M1093.98,469.53
		c-1.07,0.95-2.08,1.64-3.63,1.35c-10.59-2.03-19.44-6.8-25.31-16.16c-0.72-1.14-2.37-3.06-1.09-3.79c1.89-1.08,3.88-3.07,6.42-2.25
		c19.87,6.43,20,6.45,37.95,1.51C1104.78,457.85,1100.02,464.16,1093.98,469.53z M1111.96,433.31c-9.08,6.34-18.9,9.32-29.94,6.52
		c-1.17-0.3-3.51-0.53-3.07-1.78c0.74-2.07,0.48-5.3,2.96-6.01c13.53-3.9,21.68-13.45,27.89-26.07c3.01,8.36,4.24,16.27,3.62,24.45
		C1113.33,431.59,1112.97,432.6,1111.96,433.31z"/>
	<path d="M903.02,356.03c-38.72-0.49-70.83,30.92-70.96,69.88c-0.15,40.98,33.34,70.59,69.76,70.77
		c38.39,0.2,70.32-30.71,70.98-68.83C973.48,387.8,941.05,356.02,903.02,356.03z M924.82,411.98c6.7-12.21,5.89-24.61,1.52-37.21
		c-0.02-0.07,0.14-0.2,0.42-0.58c7.57,3.55,14.11,8.51,19.54,14.95c0.58,0.69,0.87,1.43,0.7,2.4c-1.94,10.92-6.82,19.97-16.52,25.9
		c-1.01,0.62-2.71,2.22-3.51,0.8C925.91,416.36,923.59,414.23,924.82,411.98z M906.73,368.94c1.28,0.07,2.08,0.61,2.76,1.58
		c6.24,8.87,9.03,18.53,6.56,29.33c-0.3,1.32-0.46,3.77-1.96,3.43c-2.01-0.45-5.21-0.53-5.82-2.66
		c-3.94-13.66-13.55-21.97-26.1-28.11C890.41,369.28,898.47,368.48,906.73,368.94z M915.05,426.27c0.01,7.4-5.24,12.62-12.67,12.61
		c-7.23-0.01-12.8-5.55-12.73-12.68c0.07-7.1,5.69-12.49,12.98-12.44C909.83,413.81,915.04,419.06,915.05,426.27z M848.58,446.63
		c-2.97-7.98-4.09-15.67-3.61-23.6c0.09-1.48,0.22-2.85,1.7-3.87c8.91-6.16,18.55-8.92,29.3-6.45c1.27,0.29,3.87,0.46,3.45,1.93
		c-0.6,2.07-0.48,5.29-2.97,6.01C862.91,424.5,854.8,434.1,848.58,446.63z M880.02,440.64c-6.67,12.1-5.83,24.41-1.69,36.94
		c0.06,0.18-0.11,0.45-0.22,0.84c-7.54-3.39-13.79-8.37-19.25-14.46c-0.95-1.06-1.07-2.2-0.85-3.46
		c1.89-10.7,6.88-19.42,16.29-25.25c1.07-0.66,2.86-2.12,3.55-0.92C878.94,436.21,881.22,438.47,880.02,440.64z M852.75,401.78
		c-0.46,0.15-0.97,0.19-1.46,0.21c-0.22,0.01-0.45-0.17-0.82-0.32c3.37-7.39,8.32-13.53,14.33-18.9c0.91-0.82,1.84-1.18,3.04-0.97
		c10.77,1.95,19.75,6.73,25.57,16.36c0.65,1.07,2.49,2.85,0.79,3.73c-1.9,0.97-3.87,3.35-6.39,1.94
		C876.43,397.47,864.71,397.87,852.75,401.78z M898.84,483.77c-1.43-0.07-2.58-0.27-3.5-1.6c-6.21-8.88-8.97-18.52-6.57-29.3
		c0.3-1.35,0.48-3.85,1.96-3.5c2.1,0.5,5.33,0.46,6.05,2.97c3.78,13.29,13.05,21.38,24.87,27.22c0.18,0.09,0.26,0.4,0.51,0.82
		C914.5,483.23,906.77,484.18,898.84,483.77z M940.68,469.3c-1,0.89-1.91,1.91-3.55,1.61c-10.76-1.96-19.71-6.78-25.68-16.25
		c-0.71-1.12-2.24-3.09-1.04-3.74c1.92-1.04,4.12-3.45,6.38-2.17c12.29,6.91,24.79,5.89,38.07,1.26
		C951.26,457.77,946.62,464.02,940.68,469.3z M958.27,433.4c-8.98,6.29-18.73,9.14-29.64,6.5c-1.18-0.29-3.52-0.48-3.19-1.78
		c0.55-2.11,0.6-5.37,2.89-6.04c13.51-3.92,21.71-13.41,27.9-26.07c3.14,8.36,4.1,16.19,3.7,24.23
		C959.85,431.61,959.36,432.63,958.27,433.4z"/>
</g>
</svg>
