<?xml version="1.0" encoding="utf-8"?>
<!-- Generator: Adobe Illustrator 26.0.1, SVG Export Plug-In . SVG Version: 6.00 Build 0)  -->
<svg version="1.1" id="Layer_1" xmlns="http://www.w3.org/2000/svg" xmlns:xlink="http://www.w3.org/1999/xlink" x="0px" y="0px"
	 viewBox="0 0 1920 1080" style="enable-background:new 0 0 1920 1080;" xml:space="preserve">
<path d="M1168.37,519.59c-0.19-25.54-19.09-45.62-44.51-47.3c-3.56-0.24-4.2-1.47-4.26-4.71c-0.46-24.05-6.06-46.96-18.02-67.8
	c-26.91-46.85-67.28-73.37-121.47-77.6c-33.91-2.65-65.31,5.86-93.12,25.18c-41.51,28.83-63.48,68.97-65.64,119.63
	c-0.16,3.72-0.84,5.1-4.9,5.35c-24.17,1.48-43.54,21.64-43.84,45.86c-0.3,24.07-0.31,48.16,0.01,72.23
	c0.31,23.86,19.34,43.9,43.16,45.77c13.14,1.03,26.32,0.31,39.49,0.37c11.46,0.06,17.5-5.98,17.51-17.45
	c0.04-43.23,0.04-86.47,0-129.7c-0.01-11.49-5.95-17.48-17.47-17.41c-3.14,0.02-3.91-0.78-3.79-3.91
	c1.15-29.71,11.05-56.07,31.64-77.53c34.18-35.63,75.85-47.03,123.03-32.85c49.02,14.74,81.53,59.16,83.23,110.15
	c0.11,3.27-0.53,4.19-3.95,4.16c-11.14-0.12-17.27,5.85-17.29,16.76c-0.08,43.63-0.08,87.27,0,130.9
	c0.02,10.94,6.18,16.81,17.26,16.91c3.64,0.03,7.28,0.01,11.41,0.01c-6.23,12.79-15.76,20.32-29.08,22.59
	c-9.61,1.64-19.39,0.21-29.07,0.79c-3.8,0.23-5.42-1.04-6.72-4.57c-8.66-23.52-33.02-38.26-57.77-35.23
	c-24.79,3.03-43.96,21.62-48.18,46.71c-3.93,23.38,9.06,47.31,31.22,57.96c5.28,2.54,11.01,3.4,16.42,5.36c4.52,0,9.05,0,13.57,0
	c0.28-0.23,0.54-0.61,0.84-0.65c22.47-3.2,37.55-15.53,45.2-36.84c0.77-2.14,1.73-2.52,3.68-2.5c7.85,0.08,15.7,0.08,23.54,0.02
	c32.6-0.22,58.81-20.15,67.64-51.51c0.57-2.03,1.36-3.02,3.51-3.56c22.18-5.56,36.62-23.8,36.74-46.56
	C1168.51,565.62,1168.54,542.6,1168.37,519.59z M838.69,606.27c-6.89-0.32-13.83,0.07-20.7-0.47c-8.5-0.67-14.9-7.25-14.99-15.81
	c-0.25-23.79-0.24-47.58-0.01-71.37c0.08-8.7,6.65-15.38,15.3-15.95c7.15-0.47,14.34-0.13,21.51-0.36c3.12-0.1,2.56,1.88,2.56,3.66
	c0.01,16.08,0,32.16,0,48.25c0,16.08-0.07,32.16,0.07,48.24C842.45,605.39,841.76,606.41,838.69,606.27z M981.06,699.85
	c-13.54-0.05-25.01-11.3-25.15-24.66c-0.14-13.66,10.92-24.84,24.6-24.88c13.93-0.03,24.85,11.14,24.95,25.52
	C1005.56,689.27,994.75,699.9,981.06,699.85z M1137.91,590.01c-0.09,8.55-6.51,15.16-15,15.79c-7.27,0.54-14.6,0.22-21.9,0.44
	c-2.85,0.09-2.41-1.73-2.41-3.42c0-16.34,0-32.69,0-49.03c0-15.68,0.14-31.36-0.1-47.04c-0.06-3.83,1.17-4.63,4.66-4.46
	c6.36,0.31,12.76-0.08,19.11,0.34c8.93,0.6,15.57,7.18,15.65,16.03C1138.15,542.44,1138.16,566.23,1137.91,590.01z"/>
</svg>
