<svg id="Layer_1" data-name="Layer 1" xmlns="http://www.w3.org/2000/svg" viewBox="0 0 396.11 408.51">
	<path d="M1168.37,519.59c-.19-25.54-19.09-45.62-44.51-47.3-3.56-.24-4.2-1.47-4.26-4.71-.46-24.05-6.06-47-18-67.8-26.91-46.85-67.28-73.37-121.47-77.6C946.2,319.53,914.8,328,887,347.36c-41.51,28.83-63.48,69-65.64,119.63-.16,3.72-.84,5.1-4.9,5.35a46.88,46.88,0,0,0-43.84,45.86q-.45,36.1,0,72.23c.31,23.86,19.34,43.9,43.16,45.77,13.14,1,26.32.31,39.49.37,11.46.06,17.5-6,17.51-17.45q.06-64.85,0-129.7c0-11.49-5.95-17.48-17.47-17.41-3.14,0-3.91-.78-3.79-3.91,1.15-29.71,11.05-56.07,31.64-77.53,34.18-35.63,75.85-47,123-32.85,49,14.74,81.53,59.16,83.23,110.15.11,3.27-.53,4.19-4,4.16-11.14-.12-17.27,5.85-17.29,16.76q-.12,65.44,0,130.9c0,10.94,6.18,16.81,17.26,16.91,3.64,0,7.28,0,11.41,0-6.23,12.79-15.76,20.32-29.08,22.59-9.61,1.64-19.39.21-29.07.79-3.8.23-5.42-1-6.72-4.57a55,55,0,0,0-57.77-35.23c-24.79,3-44,21.62-48.18,46.71-3.93,23.38,9.06,47.31,31.22,58,5.28,2.54,11,3.4,16.42,5.36h13.57c.28-.23.54-.61.84-.65,22.47-3.2,37.55-15.53,45.2-36.84.77-2.14,1.73-2.52,3.68-2.5q11.77.12,23.54,0c32.6-.22,58.81-20.15,67.64-51.51.57-2,1.36-3,3.51-3.56,22.18-5.56,36.62-23.8,36.74-46.56Q1168.57,554.12,1168.37,519.59ZM838.69,606.27c-6.89-.32-13.83.07-20.7-.47A15.88,15.88,0,0,1,803,590q-.37-35.68,0-71.37a16,16,0,0,1,15.3-15.95c7.15-.47,14.34-.13,21.51-.36,3.12-.1,2.56,1.88,2.56,3.66q0,24.12,0,48.25c0,16.08-.07,32.16.07,48.24C842.45,605.39,841.76,606.41,838.69,606.27Zm142.37,93.58c-13.54-.05-25-11.3-25.15-24.66a24.67,24.67,0,0,1,24.6-24.88c13.93,0,24.85,11.14,25,25.52C1005.56,689.27,994.75,699.9,981.06,699.85ZM1137.91,590a15.86,15.86,0,0,1-15,15.79c-7.27.54-14.6.22-21.9.44-2.85.09-2.41-1.73-2.41-3.42v-49c0-15.68.14-31.36-.1-47-.06-3.83,1.17-4.63,4.66-4.46,6.36.31,12.76-.08,19.11.34,8.93.6,15.57,7.18,15.65,16Q1138.27,554.33,1137.91,590Z" transform="translate(-772.38 -321.71)"/>
</svg>
