<?xml version="1.0" encoding="utf-8"?>
<!-- Generator: Adobe Illustrator 26.0.1, SVG Export Plug-In . SVG Version: 6.00 Build 0)  -->
<svg version="1.1" id="Layer_1" xmlns="http://www.w3.org/2000/svg" xmlns:xlink="http://www.w3.org/1999/xlink" x="0px" y="0px"
	 viewBox="0 0 1920 1080" style="enable-background:new 0 0 1920 1080;" xml:space="preserve">
<g>
	<path d="M1170.2,622.67c-102.58-0.01-205.16-0.01-307.74-0.01c-0.62,0-1.24,0.02-1.86,0c-2.34-0.08-3.2,0.84-2.5,3.23
		c2.25,7.75,6.32,14.29,12.71,19.26c8.92,6.93,19.33,8.65,30.28,8.64c76.78-0.04,153.56-0.02,230.34-0.02
		c3.71,0,7.42-0.07,11.1-0.68c11.75-1.92,21.35-7.16,27.78-17.55c1.9-3.07,2.86-6.53,4.52-9.68c0-0.62,0-1.24,0-1.86
		C1173.7,622.18,1171.86,622.67,1170.2,622.67z M1039.27,643.24c-1.52,1.29-4.9,0.42-7.46,0.43c-5.25,0.03-10.51,0.01-15.76,0.01
		c-6.8,0-13.6-0.08-20.39,0.05c-2.14,0.04-3.28-0.26-2.97-2.78c0.33-2.62-1.09-6.1,0.54-7.72c1.62-1.62,5.08-0.46,7.73-0.47
		c12.05-0.05,24.1,0.05,36.15-0.09c2.4-0.03,3.08,0.67,2.8,2.92C1039.58,638.22,1041.05,641.73,1039.27,643.24z"/>
	<path d="M1147.1,454.79c0-7.28-1.89-9.17-9.13-9.17c-40.55,0-81.1,0-121.66,0c-40.55,0-81.1,0-121.66,0c-7.25,0-9.15,1.9-9.15,9.16
		c0,49.11,0,98.22,0,147.34c0,7.21,1.97,9.2,9.13,9.2c81.1,0,162.21,0,243.31,0c7.18,0,9.15-1.98,9.15-9.19
		C1147.1,553.01,1147.1,503.9,1147.1,454.79z M1124.39,585.35c0.01,2.46-0.47,3.3-3.15,3.3c-69.96-0.08-139.92-0.08-209.88,0
		c-2.71,0-3.14-0.88-3.13-3.32c0.07-37.87,0.08-75.73-0.01-113.6c-0.01-2.65,0.52-3.41,3.32-3.4c34.98,0.11,69.96,0.07,104.94,0.07
		c34.88,0,69.75,0.04,104.63-0.08c2.83-0.01,3.3,0.81,3.3,3.42C1124.31,509.62,1124.31,547.48,1124.39,585.35z"/>
</g>
</svg>
