<?xml version="1.0" encoding="utf-8"?>
<!-- Generator: Adobe Illustrator 26.0.1, SVG Export Plug-In . SVG Version: 6.00 Build 0)  -->
<svg version="1.1" id="Layer_1" xmlns="http://www.w3.org/2000/svg" xmlns:xlink="http://www.w3.org/1999/xlink" x="0px" y="0px"
	 viewBox="0 0 1920 1080" style="enable-background:new 0 0 1920 1080;" xml:space="preserve">
<g>
	<g>
		<path d="M926.83,373.67c4.1,0.23,8.22,0.04,12.34,0.04c0,0.02,0,0.04,0,0.06c3.98,0,7.96,0,11.94,0c0.4,0,0.79-0.05,1.19-0.08
			c6.13-0.56,10.8-5.67,10.72-11.73c-0.08-6.07-4.82-11.31-10.97-11.49c-8.35-0.24-16.72-0.23-25.08-0.02
			c-6.25,0.16-10.9,5.19-11.02,11.34C915.84,368.2,920.38,373.31,926.83,373.67z"/>
		<path d="M989.72,373.65c8.35,0.26,16.72,0.25,25.07,0.01c6.42-0.18,11.21-5.5,11.13-11.71c-0.09-6.25-4.95-11.27-11.38-11.53
			c-3.97-0.16-7.96-0.03-11.94-0.03c0-0.01,0-0.02,0-0.03c-3.98,0-7.96,0-11.94,0c-0.26,0-0.53,0.02-0.79,0.04
			c-6.23,0.42-10.9,5.25-11.02,11.4C978.71,368.2,983.26,373.44,989.72,373.65z"/>
		<path d="M1022.88,308.54c-100.09,0.24-200.18,0.1-300.26,0.14c-3.56,0-7.18,0.11-10.64,1.14c-14.25,4.23-24.92,18.5-24.92,33.46
			c-0.02,113.36-0.01,226.71-0.02,340.07c0,10.98,4.86,19.6,12.74,26.81c5.55,5.07,12.26,7.09,19.59,7.53
			c102.24,0,204.47,0,306.71,0c5.39-0.63,10.7-1.31,15.4-4.52c10.89-7.43,16.86-17.64,16.87-30.79
			c0.1-112.69,0.03-225.39,0.08-338.08C1058.44,327.25,1044.61,308.49,1022.88,308.54z M711.49,346.48
			c0.01-9.21,4.45-13.8,13.57-13.8c98.38-0.02,196.76-0.02,295.14,0c9.15,0,13.57,4.53,13.6,13.8c0.04,13.67-0.09,27.35,0.09,41.02
			c0.04,3.27-0.81,4.19-4.14,4.18c-52.44-0.11-104.88-0.07-157.33-0.07c-52.18,0-104.35-0.04-156.53,0.09
			c-3.75,0.01-4.54-1.06-4.49-4.6C711.61,373.56,711.47,360.02,711.49,346.48z M1033.8,679.55c0,10.3-4.21,14.51-14.49,14.52
			c-97.72,0.01-195.44,0.01-293.16,0c-10.48,0-14.66-4.21-14.66-14.72c0-86.7,0.03-173.39-0.1-260.09c-0.01-3.66,1.04-4.26,4.4-4.25
			c52.31,0.11,104.63,0.08,156.94,0.08s104.63,0.03,156.94-0.07c3.2-0.01,4.23,0.63,4.23,4.05
			C1033.79,505.89,1033.81,592.72,1033.8,679.55z"/>
	</g>
	<path d="M872.63,440.62c-62.41,0-113.92,51.07-113.91,113.61c0.01,63.97,51.46,114.21,113.92,114.25
		c62.8,0.04,113.55-50.75,113.89-113.86C986.86,492.3,935.23,440.62,872.63,440.62z M784.73,533.55
		c4.94-19.52,15.03-35.84,30.56-48.63c16.67-13.72,35.96-20.49,53.49-20.62c45.64,0.15,81.68,28.54,91.63,68.89
		c0.56,2.26,0.7,3.61-2.14,4.25c-6.3,1.41-11.58,5.11-17.08,8.27c-11.7,6.72-23.61,7.14-34.97-0.16
		c-15.12-9.72-31.12-12.98-48.58-8.68c-6.37,1.57-12.02,4.8-17.56,8.2c-12.37,7.59-24.68,7.54-37.09,0.02
		c-5.08-3.08-10.14-6.33-16.05-7.69C784.61,536.86,784.14,535.85,784.73,533.55z M874.39,644.91
		c-47.99,1.17-88.57-36.15-91.76-84.19c5.62,3.06,10.66,6.31,16.09,8.67c17.26,7.52,34.28,6.62,50.76-2.51
		c6.12-3.39,11.83-7.43,19.19-8.06c7.96-0.68,15.29,0.67,21.98,5.06c10.57,6.93,21.99,10.81,34.8,10.41
		c10.48-0.33,20-3.41,28.85-8.9c2.56-1.59,5.07-3.33,8.05-4.35C961.16,599.95,927.53,643.62,874.39,644.91z"/>
</g>
</svg>
