<svg id="Layer_1" data-name="Layer 1" xmlns="http://www.w3.org/2000/svg" viewBox="0 0 275.04 274.85">
	<path d="M1446.7,636q-29.29-29.26-58.61-58.51c-1.81-1.8-1.84-2.71-.2-4.69,18.35-22.15,27.5-47.7,27.79-76.24a128.1,128.1,0,0,0-2.21-23.28c-12.76-64-73.07-105.64-137.59-95.17-68.8,11.17-114,80.31-96.53,147.7,22.16,85.5,124.73,119,192.69,62.81,2.17-1.79,3.11-1.61,5,.27q28.9,29.13,58,58.07a28.36,28.36,0,0,0,3,2.78,7.53,7.53,0,0,0,8.45.6c3-1.53,4.2-4.09,4.13-7.39C1450.57,639.86,1448.66,637.91,1446.7,636Zm-151-35.75a103.91,103.91,0,1,1,103.93-103.66A103.79,103.79,0,0,1,1295.66,600.2Z" transform="translate(-1175.59 -376.45)"/>
</svg>