<?xml version="1.0" encoding="utf-8"?>
<!-- Generator: Adobe Illustrator 26.0.1, SVG Export Plug-In . SVG Version: 6.00 Build 0)  -->
<svg version="1.1" id="Layer_1" xmlns="http://www.w3.org/2000/svg" xmlns:xlink="http://www.w3.org/1999/xlink" x="0px" y="0px"
	 viewBox="0 0 1920 1080" style="enable-background:new 0 0 1920 1080;" xml:space="preserve">
<path d="M1446.7,635.95c-19.53-19.51-39.02-39.06-58.61-58.51c-1.81-1.8-1.84-2.71-0.2-4.69c18.35-22.15,27.5-47.7,27.79-76.24
	c-0.12-7.95-0.69-15.67-2.21-23.28c-12.76-63.95-73.07-105.64-137.59-95.17c-68.8,11.17-113.99,80.31-96.53,147.7
	c22.16,85.5,124.73,118.98,192.69,62.81c2.17-1.79,3.11-1.61,4.98,0.27c19.27,19.42,38.64,38.73,57.99,58.07
	c0.97,0.97,1.94,1.97,3.03,2.78c2.66,1.97,5.56,2.1,8.45,0.6c2.95-1.53,4.2-4.09,4.13-7.39
	C1450.57,639.86,1448.66,637.91,1446.7,635.95z M1295.66,600.2c-57.58-0.03-104-46.54-103.9-104.11
	c0.1-57.32,46.61-103.72,103.97-103.71c57.54,0.01,104.04,46.64,103.86,104.16C1399.41,554.07,1353.13,600.23,1295.66,600.2z"/>
</svg>
