<?xml version="1.0" encoding="utf-8"?>
<!-- Generator: Adobe Illustrator 26.0.1, SVG Export Plug-In . SVG Version: 6.00 Build 0)  -->
<svg version="1.1" id="Layer_1" xmlns="http://www.w3.org/2000/svg" xmlns:xlink="http://www.w3.org/1999/xlink" x="0px" y="0px"
	 viewBox="0 0 1920 1080" style="enable-background:new 0 0 1920 1080;" xml:space="preserve">
<path d="M1203.52,348.09c-53.1,0-106.21,0-159.31,0c-53.48,0-106.96-0.01-160.43,0.01c-12.28,0-19.66,7.33-19.67,19.49
	c-0.01,74.96-0.01,149.93,0.01,224.89c0,1.62,0.01,3.27,0.34,4.84c1.92,9.19,9.07,14.55,19.44,14.56
	c37.61,0.02,75.22,0.04,112.83-0.05c2.85-0.01,3.71,0.47,2.91,3.48c-2.6,9.75-5.04,19.55-7.35,29.37c-0.6,2.54-1.63,3.38-4.27,3.26
	c-5.11-0.24-10.25-0.19-15.36-0.03c-7.77,0.24-12.48,5.15-12.56,12.86c-0.03,2.62,0,5.25,0,7.87c0,11.06,4.1,15.21,15.07,15.21
	c45.98,0,91.96,0,137.94,0c1,0,2,0.04,3-0.01c7-0.36,11.8-5.31,11.92-12.33c0.06-3.37,0.02-6.75,0.01-10.12
	c-0.03-8.62-4.75-13.39-13.44-13.51c-4.87-0.07-9.76-0.22-14.61,0.07c-2.77,0.17-3.61-0.96-4.18-3.37
	c-2.26-9.58-4.55-19.16-7.12-28.66c-0.9-3.31-0.41-4.13,3.18-4.12c37.23,0.14,74.47,0.09,111.7,0.08c13.52,0,20.43-6.97,20.43-20.57
	c0-74.21,0-148.43,0-222.64C1223.98,355.13,1216.98,348.09,1203.52,348.09z M876.1,368.18c0-6.3,1.73-8.09,7.92-8.09
	c106.71-0.01,213.43-0.01,320.14,0c6.12,0,7.82,1.81,7.82,8.19c0,63.97-0.02,127.94,0.08,191.92c0,3.13-0.75,3.88-3.88,3.87
	c-54.73-0.1-109.46-0.08-164.19-0.08c-54.61,0-109.21-0.03-163.82,0.07c-3.11,0.01-4.17-0.47-4.16-3.97
	C876.14,496.12,876.1,432.15,876.1,368.18z M1112.19,659.78c3.06-0.01,4.01,0.63,3.92,3.83c-0.24,8.24-0.07,8.24-8.35,8.24
	c-21.22,0-42.45,0-63.67,0c-22.85,0-45.7-0.04-68.54,0.06c-2.65,0.01-3.62-0.41-3.55-3.38c0.19-8.67,0.03-8.67,8.74-8.67
	C1024.55,659.86,1068.37,659.89,1112.19,659.78z M1004.49,644.59c2.59-9.88,5.05-19.8,7.44-29.73c0.55-2.3,1.54-3.07,4.02-3.05
	c18.74,0.13,37.48,0.13,56.21,0c2.47-0.02,3.47,0.72,4.03,3.04c2.39,9.93,4.85,19.84,7.44,29.73c0.69,2.62,0.2,3.39-2.64,3.35
	c-12.37-0.15-24.73-0.06-37.1-0.06c-12.24,0-24.49-0.08-36.73,0.06C1004.36,647.96,1003.79,647.26,1004.49,644.59z M1212.06,579.76
	c-0.3,4.48-0.02,8.99-0.1,13.49c-0.07,4.34-2.08,6.35-6.4,6.61c-1,0.06-2,0.02-3,0.02c-105.69,0-211.38,0-317.07,0
	c-1,0-2,0.04-3-0.03c-4.31-0.27-6.32-2.31-6.38-6.63c-0.07-4.87,0.09-9.75-0.07-14.61c-0.07-2.16,0.6-2.7,2.71-2.67
	c8.49,0.12,16.99,0.05,25.48,0.05c46.47,0,92.95,0,139.42,0c54.84,0,109.69,0.03,164.53-0.08
	C1211.31,575.91,1212.27,576.61,1212.06,579.76z"/>
</svg>
