<svg id="Layer_1" data-name="Layer 1" xmlns="http://www.w3.org/2000/svg" viewBox="0 0 360.06 336.02"><path d="M1089.16,642.31c2.37,9.64,4.55,18.58,6.78,27.51,2.12,8.51,2.15,8.5,11,8.51,3.5,0,7-.13,10.5.07,7.33.42,11.89,5.31,12,12.69,0,3.75.08,7.5,0,11.25a12,12,0,0,1-11.55,11.95c-1.12.07-2.25,0-3.37,0h-138c-11,0-15.08-4.17-15.08-15.24,0-2.75,0-5.5,0-8.25.14-7.25,4.85-12.17,12.23-12.45,5.5-.21,11,0,16.5-.14,1,0,2.62-.78,2.81-1.5,3-11.19,5.76-22.43,8.72-34.2-2-.09-3.56-.23-5.11-.23q-55.7,0-111.38,0c-10.38,0-17.56-5.41-19.45-14.58a24.53,24.53,0,0,1-.34-4.85q0-112.51,0-225c0-12,7.34-19.5,19.32-19.51q160.69,0,321.38,0c12,0,19.35,7.45,19.35,19.48q0,112.32,0,224.66c0,12.59-7.13,19.81-19.71,19.83q-55.5,0-111,0Zm124.27-48.11v-3.28q0-96.39,0-192.76c0-6.09-1.83-7.83-8.22-7.83H885.76c-6.74,0-8.37,1.66-8.37,8.43V594.2Zm0,12.5h-336c0,6.16-.12,12,.05,17.87.09,3.3,2,5.27,5.41,5.61a40.33,40.33,0,0,0,4.12.12h316.83c1.37,0,2.76,0,4.12-.11,3.38-.32,5.31-2.33,5.42-5.61C1213.54,618.73,1213.41,612.87,1213.41,606.7Zm-136.64,35.76h-62.7c-2.94,11.84-5.87,23.61-8.85,35.54h80.44C1082.64,665.91,1079.71,654.21,1076.77,642.46ZM973.54,702h143.65V690.63H973.54Z" transform="translate(-865.39 -378.32)"/></svg>