<?xml version="1.0" encoding="utf-8"?>
<!-- Generator: Adobe Illustrator 26.0.1, SVG Export Plug-In . SVG Version: 6.00 Build 0)  -->
<svg version="1.1" id="Layer_1" xmlns="http://www.w3.org/2000/svg" xmlns:xlink="http://www.w3.org/1999/xlink" x="0px" y="0px"
	 viewBox="0 0 1920 1080" style="enable-background:new 0 0 1920 1080;" xml:space="preserve">
<g>
	<path d="M763.07,526.4c2.47-8.69,7.38-15,16.63-17.13c2.53-0.58,5.08-0.52,7.63-0.52c85-0.01,169.99,0,254.99,0
		c1.35,0,2.7,0,4.05,0c0.25-0.37,0.5-0.74,0.75-1.11c-1.12-0.78-2.39-1.41-3.34-2.36c-25.76-25.76-51.49-51.54-77.22-77.33
		c-11.27-11.3-11.28-23.54-0.03-34.81c2.98-2.99,5.96-5.97,8.94-8.95c10.82-10.81,23.16-10.86,33.93-0.11
		c26.85,26.83,53.69,53.68,80.53,80.52c19.25,19.25,38.51,38.49,57.75,57.75c10.91,10.92,10.89,23.26-0.06,34.22
		c-46,46.01-92,92.01-138.01,138.01c-11,11-23.2,11.02-34.2,0.08c-3.08-3.07-6.16-6.13-9.23-9.2
		c-10.72-10.73-10.78-22.89-0.08-33.56c26.15-26.09,52.32-52.16,78.49-78.23c0.97-0.97,2.03-1.85,3.87-3.52c-2.41,0-3.75,0-5.08,0
		c-84.36,0-168.71,0-253.07,0c-16.56,0-21.32-3.22-27.21-18.42C763.07,543.27,763.07,534.83,763.07,526.4z"/>
</g>
</svg>
