<?xml version="1.0" encoding="utf-8"?>
<!-- Generator: Adobe Illustrator 26.0.1, SVG Export Plug-In . SVG Version: 6.00 Build 0)  -->
<svg version="1.1" id="Layer_1" xmlns="http://www.w3.org/2000/svg" xmlns:xlink="http://www.w3.org/1999/xlink" x="0px" y="0px"
	 viewBox="0 0 1920 1080" style="enable-background:new 0 0 1920 1080;" xml:space="preserve">
<path d="M1232.96,593.32c0.03-9.51-1.16-18.95-3.12-28.24c-14.62-69.61-74.06-120.68-144.98-124.17
	c-36.67-1.8-70.02,8.37-99.81,29.89c-15.74,11.37-28.74,25.39-39.91,42.65c0-10.68-0.03-20.15,0.02-29.63
	c0.02-3.01-0.8-5.61-3.83-6.57c-1.99-0.64-2.25-1.65-2.23-3.46c0.09-8.49,0.06-16.99,0.04-25.49c-0.02-5.57-2.07-7.59-7.73-7.6
	c-10.87-0.02-21.74-0.02-32.61,0c-5.61,0.01-7.62,2.04-7.63,7.7c-0.02,8.5,0.03,16.99-0.05,25.49c-0.01,1.02,0.83,2.44-1.2,2.96
	c-4,1.02-4.81,4.07-4.79,7.81c0.08,18.24,0.04,36.48,0.04,54.72c0,7.74,1.4,9.3,9.07,9.2c2.6-0.04,3.01,0.86,2.97,3.16
	c-0.13,7.62-0.27,15.25,0.05,22.86c0.15,3.59-1.07,4.25-4.31,4.12c-5.83-0.23-7.77,1.92-7.78,7.85c-0.01,6.62-0.01,13.24,0,19.87
	c0.01,6.35,1.87,8.38,8.27,8.11c3.18-0.13,3.89,0.79,3.8,3.87c-0.54,18.9,0.39,37.68,5.21,56.11
	c21.92,83.86,102.45,136.51,186.55,124.26c45.42-6.62,82.27-28.62,110.16-65.09c19.73-25.8,30.77-55.11,33.25-87.55
	C1233.75,628.55,1232.9,610.93,1232.96,593.32z M903.13,454.76c-0.02-1.63,0.44-2.13,2.1-2.11c6.62,0.09,13.24,0.09,19.86,0
	c1.63-0.02,2.13,0.44,2.11,2.1c-0.09,6.62-0.09,13.24,0,19.86c0.02,1.63-0.44,2.17-2.1,2.11c-3.37-0.12-6.74-0.04-10.12-0.04
	c-3.25,0-6.5-0.08-9.74,0.03c-1.64,0.06-2.13-0.44-2.11-2.09C903.22,468,903.22,461.38,903.13,454.76z M897.11,533.37
	c0.17-6.99,0.06-13.99,0.06-20.99c0-6.87,0.09-13.74-0.05-20.61c-0.04-2.28,0.34-3.21,2.96-3.17c9.99,0.18,19.99,0.19,29.98,0
	c2.78-0.05,3.17,0.89,3.15,3.36c-0.12,13.87-0.1,27.73-0.01,41.6c0.02,2.28-0.34,3.21-2.96,3.16c-9.99-0.18-19.99-0.19-29.98,0
	C897.48,536.79,897.05,535.84,897.11,533.37z M909.12,551.29c-0.05-2.12,0.56-2.66,2.67-2.69c9.37-0.11,9.37-0.18,9.37,9.06
	c0,2,0,4,0,5.99c0,4.25-0.09,8.5,0.04,12.74c0.05,1.8-0.5,2.24-2.29,2.31c-9.75,0.37-9.75,0.43-9.75-9.43
	C909.17,563.28,909.26,557.28,909.12,551.29z M899.8,602.69c-2.12,0.03-2.66-0.57-2.69-2.68c-0.11-9.37-0.18-9.37,9.06-9.37
	c15.99,0,31.98,0.06,47.97-0.06c2.44-0.02,3.08,0.62,3.07,3.06c-0.06,8.99,0.04,8.99-9.07,8.99c-7,0-13.99,0-20.99,0
	C918.04,602.64,908.92,602.57,899.8,602.69z M969.11,585.11c-0.05-4.28-2.42-6.53-6.97-6.41c-2.85,0.08-3.71-0.32-3.08-3.58
	c9.67-50.01,46.73-86.96,97.17-96.64c55.37-10.63,114.07,22.8,133.11,75.82c0.08,0.21,0.01,0.47,0.01,1.27
	c-11.33-10.73-24.39-16.95-39.54-18.57c-7.34-0.78-14.73-0.29-22.09-0.29c-2.11,0-2.81-0.56-2.68-2.69
	c0.13-2.08,0.42-4.26-0.73-6.23c-1.33-2.28-3.37-3.15-5.95-3.15c-19.49,0.02-38.97,0.02-58.46,0c-2.89,0-5.31,0.94-6.21,3.79
	c-0.62,1.95-1.58,2.29-3.43,2.26c-8.62-0.1-17.24-0.07-25.86-0.04c-5.12,0.02-7.25,2.16-7.26,7.31c-0.03,11.12-0.03,22.24,0,33.35
	c0.01,5.13,2.16,7.28,7.27,7.3c8.49,0.04,16.99,0.03,25.48-0.01c1.79-0.01,3.16-0.05,3.81,2.24c0.77,2.69,3.08,3.77,5.84,3.77
	c19.74,0,39.47,0.04,59.21-0.03c4.3-0.02,6.59-2.58,6.23-7.47c-0.28-3.84,0.9-4.87,4.63-4.56c6.33,0.53,12.73-0.53,19.05,0.68
	c13.1,2.5,23.69,13.14,24.09,26.48c0.54,18.3,1.65,36.71-1.94,54.92c-8.46,42.93-45.27,78.09-88.57,84.51
	c-58.6,8.69-111.4-28.35-123.18-86.36c-2.44-11.99-1.8-24.12-1.96-36.22c-0.02-1.79,0.74-2.08,2.22-1.97
	c1.12,0.09,2.25,0.05,3.37,0.01c4-0.17,6.35-2.34,6.41-6.27C969.21,600.6,969.21,592.86,969.11,585.11z M1191.29,670.88
	c-17.7,52-53.48,83.77-107.87,92.12c-69.08,10.61-133.72-35.87-147.77-104.65c-2.82-13.82-2.53-27.81-2.53-41.79
	c0-1.82,0.81-1.89,2.24-1.96c9.79-0.46,10.04-0.48,9.74,9.36c-0.69,22.61,2.82,44.37,13.84,64.31
	c20.7,37.45,52.31,59.52,95.06,63.55c61.36,5.79,115.84-34.86,128.58-94.9c1.53-7.21,2.51-14.54,2.41-21.92
	c-0.17-13.1,1.12-26.26-0.68-39.29c-2.64-19.16-19.75-34.27-39.16-34.97c-5.86-0.21-11.74-0.15-17.61-0.05
	c-1.91,0.03-2.48-0.45-2.53-2.46c-0.2-9.58-0.27-9.51,9.22-9.6c9.51-0.09,18.92,0.01,28.01,3.55c20.82,8.11,34.56,27.7,34.78,50.01
	c0.06,5.75,0.01,11.49,0.01,20C1197.59,636.86,1196.96,654.22,1191.29,670.88z M1113.14,570.02c0.02,2.12-0.56,2.69-2.68,2.68
	c-14.24-0.09-28.48-0.09-42.72,0c-2.11,0.01-2.7-0.56-2.68-2.68c0.11-10.24,0.11-20.49,0-30.73c-0.02-2.12,0.56-2.72,2.68-2.68
	c7.12,0.13,14.24,0.05,21.36,0.05c7.12,0,14.24,0.08,21.36-0.05c2.12-0.04,2.7,0.56,2.68,2.68
	C1113.03,549.53,1113.03,559.78,1113.14,570.02z M1029.91,543.24c2.22-1.98,7.59-0.41,11.57-0.41c3.81,0.19,8.92-1.87,11.08,0.58
	c1.87,2.13,0.62,7.13,0.52,10.85c-0.11,4.07,1.79,9.52-0.75,11.8c-2.23,2-7.59,0.64-11.57,0.55c-3.82-0.09-8.93,1.66-11.08-0.73
	c-1.88-2.09-0.62-7.12-0.52-10.85C1029.27,550.97,1027.37,545.51,1029.91,543.24z M1218.25,661.75
	c-7.95,39.79-28.13,71.93-60.57,96.15c-29.58,22.08-63.13,32.05-99.95,30.49c-69.56-2.94-129.6-53.55-144.82-121.63
	c-3.69-16.49-3.93-33.17-3.8-49.91c0.01-1.85,0.6-2.2,2.33-2.27c9.71-0.35,9.92-0.39,9.67,9.47c-0.61,24.05,2.88,47.32,13.5,69.09
	c21.76,44.59,56.93,72.53,105.87,81.05c71.47,12.45,138.55-28.44,161.54-97.24c4.62-13.82,6.99-28.1,6.95-42.67
	c-0.04-16.36,0.92-32.75-0.56-49.07c-3.38-37.18-19.64-67.84-48.61-91.17c-73.83-59.46-183.41-24.46-209.64,66.65
	c-1.49,5.16-2.66,10.39-3.4,15.7c-0.24,1.72-0.76,2.22-2.5,2.3c-10.49,0.51-10.48,0.56-8.32-9.93
	c12.06-58.42,56.41-102.43,114.53-113.65c75.24-14.53,150.01,34.53,166.93,109.32c3.79,16.76,3.8,33.68,3.6,49.51
	C1221.13,630.71,1221.34,646.31,1218.25,661.75z"/>
</svg>
