<svg id="Layer_1" data-name="Layer 1" xmlns="http://www.w3.org/2000/svg" viewBox="0 0 409.02 409.01">
	<defs>
		<style>.cls-1{fill:#252525;}.cls-2{fill:#797979;}</style>
	</defs>
	<path class="cls-1" d="M1164.51,537.79a3.6,3.6,0,0,1,0-4.79Z" transform="translate(-755.5 -335.5)"/>
	<path class="cls-1" d="M1164.51,547.37a3.6,3.6,0,0,1,0-4.79Z" transform="translate(-755.5 -335.5)"/>
	<path class="cls-1" d="M953,744.51a3.6,3.6,0,0,1,4.79,0Z" transform="translate(-755.5 -335.5)"/>
	<path class="cls-1" d="M962.58,744.51a2.71,2.71,0,0,1,4,0Z" transform="translate(-755.5 -335.5)"/>
	<path class="cls-2" d="M1164.51,529c-1-.53-1.19-1.06,0-1.6Z" transform="translate(-755.5 -335.5)"/>
	<path class="cls-2" d="M947.42,744.51c.53-1.19,1.06-1,1.6,0Z" transform="translate(-755.5 -335.5)"/>
	<path class="cls-2" d="M971.36,744.51c.53-1,1.06-1.19,1.6,0Z" transform="translate(-755.5 -335.5)"/>
	<path d="M1164.51,524.23c-.8-4-.41-8.17-.94-12.2a198.9,198.9,0,0,0-21-66.61,205.54,205.54,0,0,0-51.11-63.15A201.67,201.67,0,0,0,996.32,338c-16.72-3-33.56-2.73-50.44-2.18-28.61.93-55.27,9.12-80.48,22.06A206.27,206.27,0,0,0,758,504.1c-3,16.72-2.72,33.56-2.17,50.44.93,28.61,9.14,55.27,22.08,80.48A206.51,206.51,0,0,0,913.6,740.24c9.85,2.3,19.82,3.35,29.84,4.27h4a1,1,0,0,1,1.6,0h4a6.13,6.13,0,0,1,4.79,0h4.79a4.33,4.33,0,0,1,4,0h4.79a1,1,0,0,1,1.6,0h2.39c4.31-.74,8.71-.37,13-.94A199.22,199.22,0,0,0,1055,722.51a205.33,205.33,0,0,0,62.88-50.83,202.49,202.49,0,0,0,44.6-95.82c1.12-6.28.92-12.65,2-18.9v-4c-1.19-.53-1-1.06,0-1.6v-4a6.13,6.13,0,0,1,0-4.79V537.8a6.13,6.13,0,0,1,0-4.79v-4a1,1,0,0,1,0-1.6C1164.51,526.35,1164.51,525.29,1164.51,524.23Zm-90.36,155.58c-26.68,21.47-56.89,34.69-90.9,39.15-7.66,1-15.36,1.21-21.91,1.58-43.65-.51-81.57-13.89-114.79-40.49-1.16-.93-2-1.63-1.76-3.52,5.78-45.44,40.91-85.44,85.14-96.79,51.37-13.18,102.22,7.26,130,52.44a114.19,114.19,0,0,1,15.63,44.33A3.08,3.08,0,0,1,1074.15,679.81ZM898.09,488.86a62.37,62.37,0,0,1,61.85-62c34.08-.17,62.16,27.71,62.35,61.9.19,34-27.83,62.08-62,62.15A62.25,62.25,0,0,1,898.09,488.86Zm198.33,168.67q-20-70.11-87.58-97.43c49.65-35.78,45.38-99.84,11.79-132.34-35.16-34-90.65-32.69-123.51,2.74s-31.91,96.11,14.67,129.6c-45.11,18.25-74.55,50.47-87.88,97.62-58.78-66.35-62.55-177.19,12.79-248.87,72.46-68.94,188.84-64.74,256.6,9.84C1162.35,494.7,1148.93,600,1096.42,657.53Z" transform="translate(-755.5 -335.5)"/>
</svg>
