<?xml version="1.0" encoding="utf-8"?>
<!-- Generator: Adobe Illustrator 26.0.1, SVG Export Plug-In . SVG Version: 6.00 Build 0)  -->
<svg version="1.1" id="Layer_1" xmlns="http://www.w3.org/2000/svg" xmlns:xlink="http://www.w3.org/1999/xlink" x="0px" y="0px"
	 viewBox="0 0 1920 1080" style="enable-background:new 0 0 1920 1080;" xml:space="preserve">
<style type="text/css">
	.st0{fill:#252525;}
	.st1{fill:#797979;}
</style>
<g>
	<path class="st0" d="M1164.51,537.79c-1.13-1.6-1.3-3.19,0-4.79C1164.51,534.6,1164.51,536.2,1164.51,537.79z"/>
	<path class="st0" d="M1164.51,547.37c-1.3-1.6-1.13-3.19,0-4.79C1164.51,544.18,1164.51,545.78,1164.51,547.37z"/>
	<path class="st0" d="M953.01,744.51c1.6-1.3,3.19-1.13,4.79,0C956.2,744.51,954.6,744.51,953.01,744.51z"/>
	<path class="st0" d="M962.58,744.51c1.33-1.1,2.66-1.23,3.99,0C965.24,744.51,963.91,744.51,962.58,744.51z"/>
	<path class="st1" d="M1164.51,529.01c-0.99-0.53-1.19-1.06,0-1.6C1164.51,527.95,1164.51,528.48,1164.51,529.01z"/>
	<path class="st1" d="M947.42,744.51c0.53-1.19,1.06-0.99,1.6,0C948.48,744.51,947.95,744.51,947.42,744.51z"/>
	<path class="st1" d="M971.36,744.51c0.53-0.99,1.06-1.19,1.6,0C972.43,744.51,971.9,744.51,971.36,744.51z"/>
	<path d="M1164.51,524.23c-0.8-4.03-0.41-8.17-0.94-12.2c-3.08-23.43-10.11-45.69-21.04-66.61c-12.78-24.44-29.91-45.49-51.11-63.15
		c-27.78-23.14-59.5-37.88-95.1-44.25c-16.72-2.99-33.56-2.73-50.44-2.18c-28.61,0.93-55.27,9.12-80.48,22.06
		c-24.53,12.6-45.49,29.91-63.15,51.09c-23.16,27.77-37.87,59.51-44.23,95.11c-2.99,16.72-2.72,33.56-2.17,50.44
		c0.93,28.61,9.14,55.27,22.08,80.48c12.6,24.53,29.91,45.49,51.1,63.14c24.85,20.7,53.03,34.72,84.57,42.08
		c9.85,2.3,19.82,3.35,29.84,4.27c1.33,0,2.66,0,3.99,0c0.53-0.5,1.06-0.5,1.6,0c1.33,0,2.66,0,3.99,0c1.6-0.65,3.19-0.65,4.79,0
		c1.6,0,3.19,0,4.79,0c1.33-0.65,2.66-0.65,3.99,0c1.6,0,3.19,0,4.79,0c0.53-0.5,1.06-0.5,1.6,0c0.8,0,1.6,0,2.39,0
		c4.31-0.74,8.71-0.37,13-0.94c23.43-3.1,45.7-10.12,66.62-21.06c24.32-12.72,45.28-29.76,62.88-50.83
		c23.37-27.96,38.18-59.93,44.6-95.82c1.12-6.28,0.92-12.65,2.05-18.9c0-1.33,0-2.66,0-3.99c-1.19-0.53-0.99-1.06,0-1.6
		c0-1.33,0-2.66,0-3.99c-0.65-1.6-0.65-3.19,0-4.79c0-1.6,0-3.19,0-4.79c-0.65-1.6-0.65-3.19,0-4.79c0-1.33,0-2.66,0-3.99
		c-0.5-0.53-0.5-1.06,0-1.6C1164.51,526.35,1164.51,525.29,1164.51,524.23z M1074.15,679.81c-26.68,21.47-56.89,34.69-90.9,39.15
		c-7.66,1.01-15.36,1.21-21.91,1.58c-43.65-0.51-81.57-13.89-114.79-40.49c-1.16-0.93-2-1.63-1.76-3.52
		c5.78-45.44,40.91-85.44,85.14-96.79c51.37-13.18,102.22,7.26,130.02,52.44c8.38,13.61,13.38,28.5,15.63,44.33
		C1075.82,678.15,1075.27,678.91,1074.15,679.81z M898.09,488.86c0.06-33.96,27.87-61.83,61.85-62
		c34.08-0.17,62.16,27.71,62.35,61.9c0.19,34.01-27.83,62.08-62.05,62.15C926.11,550.99,898.03,522.95,898.09,488.86z
		 M1096.42,657.53c-13.32-46.74-42.5-79.21-87.58-97.43c49.65-35.78,45.38-99.84,11.79-132.34c-35.16-34.01-90.65-32.69-123.51,2.74
		c-32.79,35.35-31.91,96.11,14.67,129.6c-45.11,18.25-74.55,50.47-87.88,97.62c-58.78-66.35-62.55-177.19,12.79-248.87
		c72.46-68.94,188.84-64.74,256.6,9.84C1162.35,494.7,1148.93,599.97,1096.42,657.53z"/>
</g>
</svg>
