<?xml version="1.0" encoding="utf-8"?>
<!-- Generator: Adobe Illustrator 26.0.1, SVG Export Plug-In . SVG Version: 6.00 Build 0)  -->
<svg version="1.1" id="Layer_1" xmlns="http://www.w3.org/2000/svg" xmlns:xlink="http://www.w3.org/1999/xlink" x="0px" y="0px"
	 viewBox="0 0 1920 1080" style="enable-background:new 0 0 1920 1080;" xml:space="preserve">
<g>
	<path d="M745.64,525.44c1.26-3.17,3.36-5.73,5.7-8.17c38.19-39.8,84.2-66.03,138.51-75.35c91.55-15.73,170.24,10.26,235.32,76.8
		c1.94,1.98,3.06,4.37,4.32,6.73c0,2,0,4,0,6c-0.28,0.37-0.61,0.71-0.82,1.12c-4.44,8.74-13.85,10.21-20.61,3.01
		c-15.84-16.87-33.66-31.22-53.71-42.78c-29.58-17.06-61.32-27.69-95.39-30.36c-75.06-5.9-138.76,18.66-191.23,72.52
		c-8.07,8.28-16.94,6.66-22.1-4.25C745.64,528.94,745.64,527.19,745.64,525.44z"/>
	<path d="M942.3,514.13c47.92,1.14,92.63,20.42,128.61,59.33c5.35,5.78,5.35,13.29,0.2,17.96c-5.21,4.73-12.47,4.12-17.89-1.79
		c-22.8-24.83-50.5-41.5-83.59-47.91c-56.46-10.92-105.01,4.71-145.46,45.55c-2.89,2.92-5.39,6.31-9.82,7.08
		c-5.13,0.89-10.23-1.5-12.72-5.95c-2.48-4.44-1.93-9.85,1.64-13.9c12.57-14.26,27.14-26.11,43.56-35.68
		C874.82,522.53,905.06,514.44,942.3,514.13z"/>
	<path d="M937.53,591.19c31.98,0.53,58.46,12.83,79.25,37.23c4.97,5.83,4.76,13.23-0.38,17.71c-5.42,4.71-12.65,3.91-17.79-2.09
		c-17.27-20.16-39.12-30.04-65.67-28.63c-22.72,1.2-41.38,11.01-56.07,28.31c-3.44,4.05-7.48,6.29-12.78,5.13
		c-8.86-1.93-12.34-12.27-6.51-19.46c12.47-15.38,28.1-26.34,46.87-32.75C915.15,592.98,926.17,591.11,937.53,591.19z"/>
	<path d="M937.5,668.05c-14.2,0.04-26.01,11.91-25.95,26.08c0.06,14.23,11.88,25.98,26.08,25.92c14.26-0.06,26.02-11.87,25.95-26.05
		C963.51,679.76,951.7,668.01,937.5,668.05z M937.44,696c-1.14-0.08-1.74-0.84-1.88-1.96c0.2-1.1,0.83-1.93,1.93-1.93
		c1.3-0.01,2.12,0.87,2.01,2.17C939.41,695.36,938.6,696.08,937.44,696z"/>
</g>
</svg>
